<mxfile host="app.diagrams.net" modified="2023-12-20T09:31:06.621Z" agent="Mozilla/5.0 (Windows NT 10.0; Win64; x64) AppleWebKit/537.36 (KHTML, like Gecko) Chrome/120.0.0.0 Safari/537.36" etag="qsN9AgkX75viaa-k7NvY" version="22.1.11" type="device">
  <diagram name="Page-1" id="HBA_aMLwCbDoSrrMfznN">
    <mxGraphModel dx="1050" dy="530" grid="1" gridSize="10" guides="1" tooltips="1" connect="1" arrows="1" fold="1" page="1" pageScale="1" pageWidth="825" pageHeight="850" math="0" shadow="0">
      <root>
        <mxCell id="0" />
        <mxCell id="1" parent="0" />
        <mxCell id="6A9MKmy1OPl6ItHmvzTU-1" value="&lt;b&gt;&lt;font style=&quot;font-size: 14px;&quot;&gt;Caregiver&lt;/font&gt;&lt;/b&gt;" style="shape=umlActor;verticalLabelPosition=bottom;verticalAlign=top;html=1;outlineConnect=0;strokeWidth=3;labelBackgroundColor=none;" parent="1" vertex="1">
          <mxGeometry x="68" y="670" width="62" height="90" as="geometry" />
        </mxCell>
        <mxCell id="6A9MKmy1OPl6ItHmvzTU-2" value="&lt;b&gt;&lt;font style=&quot;font-size: 14px;&quot;&gt;Learner&lt;/font&gt;&lt;br&gt;&lt;/b&gt;" style="shape=umlActor;verticalLabelPosition=bottom;verticalAlign=top;html=1;outlineConnect=0;shadow=0;strokeWidth=3;labelBackgroundColor=none;" parent="1" vertex="1">
          <mxGeometry x="68" y="80" width="62" height="90" as="geometry" />
        </mxCell>
        <mxCell id="6A9MKmy1OPl6ItHmvzTU-3" style="edgeStyle=entityRelationEdgeStyle;orthogonalLoop=1;jettySize=auto;html=1;exitX=1;exitY=0.5;exitDx=0;exitDy=0;endArrow=none;endFill=0;strokeWidth=2;labelBackgroundColor=none;fontColor=default;curved=1;startArrow=none;startFill=0;" parent="1" source="6A9MKmy1OPl6ItHmvzTU-4" target="6A9MKmy1OPl6ItHmvzTU-9" edge="1">
          <mxGeometry relative="1" as="geometry" />
        </mxCell>
        <mxCell id="6A9MKmy1OPl6ItHmvzTU-4" value="&lt;span style=&quot;font-size: 16px;&quot;&gt;&lt;span style=&quot;font-size: 16px;&quot;&gt;Upload Educational Content&lt;/span&gt;&lt;/span&gt;" style="ellipse;whiteSpace=wrap;html=1;strokeWidth=2;labelBackgroundColor=none;fontStyle=1;fontSize=16;" parent="1" vertex="1">
          <mxGeometry x="310" y="172" width="206" height="88" as="geometry" />
        </mxCell>
        <mxCell id="6A9MKmy1OPl6ItHmvzTU-5" style="edgeStyle=entityRelationEdgeStyle;orthogonalLoop=1;jettySize=auto;html=1;exitX=0;exitY=0.5;exitDx=0;exitDy=0;strokeWidth=2;shadow=0;jumpStyle=none;endArrow=none;endFill=0;labelBackgroundColor=none;fontColor=default;curved=1;startArrow=none;startFill=0;" parent="1" source="6A9MKmy1OPl6ItHmvzTU-6" target="6A9MKmy1OPl6ItHmvzTU-2" edge="1">
          <mxGeometry relative="1" as="geometry" />
        </mxCell>
        <mxCell id="6A9MKmy1OPl6ItHmvzTU-6" value="&lt;div style=&quot;font-size: 16px;&quot;&gt;&lt;font face=&quot;Verdana&quot; style=&quot;font-size: 16px;&quot;&gt;&lt;span style=&quot;font-size: 16px;&quot;&gt;Register&lt;/span&gt;&lt;/font&gt;&lt;/div&gt;" style="ellipse;whiteSpace=wrap;html=1;align=center;fontStyle=1;strokeWidth=2;labelBackgroundColor=none;fontSize=16;" parent="1" vertex="1">
          <mxGeometry x="310" y="48" width="206" height="70" as="geometry" />
        </mxCell>
        <mxCell id="6A9MKmy1OPl6ItHmvzTU-19" style="edgeStyle=entityRelationEdgeStyle;orthogonalLoop=1;jettySize=auto;html=1;exitX=1;exitY=0.5;exitDx=0;exitDy=0;curved=1;endArrow=none;endFill=0;startArrow=none;startFill=0;strokeWidth=2;" parent="1" source="6A9MKmy1OPl6ItHmvzTU-8" target="6A9MKmy1OPl6ItHmvzTU-9" edge="1">
          <mxGeometry relative="1" as="geometry" />
        </mxCell>
        <mxCell id="6A9MKmy1OPl6ItHmvzTU-8" value="&lt;span style=&quot;font-size: 16px;&quot;&gt;&lt;span style=&quot;font-size: 16px;&quot;&gt;Monitor the Progress&lt;br style=&quot;font-size: 16px;&quot;&gt;of Learners&lt;br style=&quot;font-size: 16px;&quot;&gt;&lt;/span&gt;&lt;/span&gt;" style="ellipse;whiteSpace=wrap;html=1;strokeWidth=2;labelBackgroundColor=none;fontStyle=1;fontSize=16;" parent="1" vertex="1">
          <mxGeometry x="310" y="312" width="206" height="86" as="geometry" />
        </mxCell>
        <mxCell id="6A9MKmy1OPl6ItHmvzTU-9" value="&lt;b&gt;&lt;font style=&quot;font-size: 14px;&quot;&gt;Educator&lt;/font&gt;&lt;br&gt;&lt;/b&gt;" style="shape=umlActor;verticalLabelPosition=bottom;verticalAlign=top;html=1;outlineConnect=0;shadow=0;strokeWidth=3;labelBackgroundColor=none;" parent="1" vertex="1">
          <mxGeometry x="730" y="375" width="68" height="100" as="geometry" />
        </mxCell>
        <mxCell id="6A9MKmy1OPl6ItHmvzTU-20" style="edgeStyle=entityRelationEdgeStyle;orthogonalLoop=1;jettySize=auto;html=1;exitX=0;exitY=0.5;exitDx=0;exitDy=0;curved=1;endArrow=none;endFill=0;startArrow=none;startFill=0;strokeWidth=2;" parent="1" source="6A9MKmy1OPl6ItHmvzTU-10" target="6A9MKmy1OPl6ItHmvzTU-2" edge="1">
          <mxGeometry relative="1" as="geometry" />
        </mxCell>
        <mxCell id="6A9MKmy1OPl6ItHmvzTU-10" value="&lt;span style=&quot;font-size: 16px;&quot;&gt;&lt;span style=&quot;font-size: 16px;&quot;&gt;Learn Adaptive&lt;br style=&quot;font-size: 16px;&quot;&gt;Materials&lt;br style=&quot;font-size: 16px;&quot;&gt;&lt;/span&gt;&lt;/span&gt;" style="ellipse;whiteSpace=wrap;html=1;strokeWidth=2;labelBackgroundColor=none;fontStyle=1;fontSize=16;" parent="1" vertex="1">
          <mxGeometry x="311" y="462" width="205" height="80" as="geometry" />
        </mxCell>
        <mxCell id="6A9MKmy1OPl6ItHmvzTU-22" style="edgeStyle=entityRelationEdgeStyle;orthogonalLoop=1;jettySize=auto;html=1;exitX=0;exitY=0.5;exitDx=0;exitDy=0;curved=1;endArrow=none;endFill=0;startArrow=none;startFill=0;strokeWidth=2;" parent="1" source="6A9MKmy1OPl6ItHmvzTU-11" target="6A9MKmy1OPl6ItHmvzTU-1" edge="1">
          <mxGeometry relative="1" as="geometry" />
        </mxCell>
        <mxCell id="MVbpDgUnGjBe6hSk_bXv-1" style="edgeStyle=entityRelationEdgeStyle;orthogonalLoop=1;jettySize=auto;html=1;exitX=1;exitY=0.5;exitDx=0;exitDy=0;endArrow=none;endFill=0;curved=1;strokeWidth=2;" edge="1" parent="1" source="6A9MKmy1OPl6ItHmvzTU-11" target="6A9MKmy1OPl6ItHmvzTU-9">
          <mxGeometry relative="1" as="geometry" />
        </mxCell>
        <mxCell id="6A9MKmy1OPl6ItHmvzTU-11" value="&lt;span style=&quot;font-size: 16px;&quot;&gt;&lt;span style=&quot;font-size: 16px;&quot;&gt;Collaborate between Educators and Caregivers&lt;/span&gt;&lt;/span&gt;" style="ellipse;whiteSpace=wrap;html=1;strokeWidth=2;labelBackgroundColor=none;fontStyle=1;fontSize=16;" parent="1" vertex="1">
          <mxGeometry x="316" y="722" width="194" height="88" as="geometry" />
        </mxCell>
        <mxCell id="6A9MKmy1OPl6ItHmvzTU-21" style="edgeStyle=entityRelationEdgeStyle;orthogonalLoop=1;jettySize=auto;html=1;exitX=0;exitY=0.5;exitDx=0;exitDy=0;curved=1;endArrow=none;endFill=0;startArrow=none;startFill=0;strokeWidth=2;" parent="1" source="6A9MKmy1OPl6ItHmvzTU-12" target="6A9MKmy1OPl6ItHmvzTU-1" edge="1">
          <mxGeometry relative="1" as="geometry" />
        </mxCell>
        <mxCell id="6A9MKmy1OPl6ItHmvzTU-12" value="&lt;span style=&quot;font-size: 16px;&quot;&gt;&lt;span style=&quot;font-size: 16px;&quot;&gt;Stay Informed about&amp;nbsp;&lt;br style=&quot;font-size: 16px;&quot;&gt;Learner Progress&lt;br style=&quot;font-size: 16px;&quot;&gt;&lt;/span&gt;&lt;/span&gt;" style="ellipse;whiteSpace=wrap;html=1;strokeWidth=2;labelBackgroundColor=none;fontStyle=1;fontSize=16;" parent="1" vertex="1">
          <mxGeometry x="316" y="592" width="190" height="80" as="geometry" />
        </mxCell>
        <mxCell id="6A9MKmy1OPl6ItHmvzTU-13" style="edgeStyle=entityRelationEdgeStyle;orthogonalLoop=1;jettySize=auto;html=1;exitX=0;exitY=0.5;exitDx=0;exitDy=0;curved=1;endArrow=none;endFill=0;startArrow=none;startFill=0;strokeWidth=2;" parent="1" source="6A9MKmy1OPl6ItHmvzTU-6" target="6A9MKmy1OPl6ItHmvzTU-1" edge="1">
          <mxGeometry relative="1" as="geometry" />
        </mxCell>
        <mxCell id="6A9MKmy1OPl6ItHmvzTU-14" style="edgeStyle=entityRelationEdgeStyle;orthogonalLoop=1;jettySize=auto;html=1;exitX=1;exitY=0.5;exitDx=0;exitDy=0;curved=1;endArrow=none;endFill=0;startArrow=none;startFill=0;strokeWidth=2;" parent="1" source="6A9MKmy1OPl6ItHmvzTU-6" target="6A9MKmy1OPl6ItHmvzTU-9" edge="1">
          <mxGeometry relative="1" as="geometry" />
        </mxCell>
      </root>
    </mxGraphModel>
  </diagram>
</mxfile>
